<svg width="100" height="100" viewBox="0 0 100 100" fill="none" xmlns="http://www.w3.org/2000/svg">
<path d="M50 5L90 27.5V72.5L50 95L10 72.5V27.5L50 5Z" fill="#1C1C22" stroke="#00FF99" stroke-width="3"/>
<path d="M28.0156 65L35.6156 35.8H40.4556L48.0156 65H44.3756L42.4556 57.24H33.6156L31.6956 65H28.0156ZM34.3356 54.2H41.6956L39.4556 45.2C39.029 43.4933 38.6956 42.0667 38.4556 40.92C38.2156 39.7733 38.069 39.0267 38.0156 38.68C37.9623 39.0267 37.8156 39.7733 37.5756 40.92C37.3356 42.0667 37.0023 43.48 36.5756 45.16L34.3356 54.2ZM54.6 65V35.8H58.2V61.72H71.4V65H54.6Z" fill="white"/>
</svg>
