<svg width="32" height="32" viewBox="0 0 32 32" fill="none" xmlns="http://www.w3.org/2000/svg">
<path d="M16 1.60001L28.8 8.80001V23.2L16 30.4L3.2 23.2V8.80001L16 1.60001Z" fill="#1C1C22" stroke="#00FF99"/>
<path d="M9 20.344L11.432 11H12.9808L15.4 20.344H14.2352L13.6208 17.8608H10.792L10.1776 20.344H9ZM11.0224 16.888H13.3776L12.6608 14.008C12.5243 13.4619 12.4176 13.0053 12.3408 12.6384C12.264 12.2715 12.2171 12.0325 12.2 11.9216C12.1829 12.0325 12.136 12.2715 12.0592 12.6384C11.9824 13.0053 11.8757 13.4576 11.7392 13.9952L11.0224 16.888ZM17.507 20.344V11H18.659V19.2944H22.883V20.344H17.507Z" fill="white"/>
</svg>
