<svg width="100" height="100" viewBox="0 0 100 100" fill="none" xmlns="http://www.w3.org/2000/svg">
<path d="M50 5L90 27.5V72.5L50 95L10 72.5V27.5L50 5Z" stroke="#00FF99" stroke-width="3"/>
<path d="M31.9125 62L37.9925 38.64H41.8645L47.9125 62H45.0005L43.4645 55.792H36.3925L34.8565 62H31.9125ZM36.9685 53.36H42.8565L41.0645 46.16C40.7232 44.7947 40.4565 43.6533 40.2645 42.736C40.0725 41.8187 39.9552 41.2213 39.9125 40.944C39.8698 41.2213 39.7525 41.8187 39.5605 42.736C39.3685 43.6533 39.1018 44.784 38.7605 46.128L36.9685 53.36ZM53.18 62V38.64H56.06V59.376H66.62V62H53.18Z" fill="white"/>
</svg>
